<svg width="12" height="14" viewBox="0 0 12 14" fill="none" xmlns="http://www.w3.org/2000/svg">
<path fill-rule="evenodd" clip-rule="evenodd" d="M0.333008 5.87818C0.333008 2.8116 2.8956 0.333008 5.99531 0.333008C9.10375 0.333008 11.6663 2.8116 11.6663 5.87818C11.6663 7.42347 11.1043 8.85809 10.1793 10.0741C9.15888 11.4154 7.90111 12.584 6.48537 13.5013C6.16135 13.7133 5.86892 13.7293 5.51331 13.5013C4.0895 12.584 2.83173 11.4154 1.82001 10.0741C0.89433 8.85809 0.333008 7.42347 0.333008 5.87818ZM4.12912 6.05083C4.12912 7.07814 4.96741 7.88611 5.99527 7.88611C7.0238 7.88611 7.87015 7.07814 7.87015 6.05083C7.87015 5.03153 7.0238 4.18422 5.99527 4.18422C4.96741 4.18422 4.12912 5.03153 4.12912 6.05083Z" fill="#666666"/>
</svg>
