<svg width="14" height="12" viewBox="0 0 14 12" fill="none" xmlns="http://www.w3.org/2000/svg">
<path d="M13.6663 8.62732C13.6663 10.4873 12.173 11.994 10.313 12.0007H10.3063H3.69967C1.84634 12.0007 0.333008 10.5007 0.333008 8.64065V8.63398C0.333008 8.63398 0.337008 5.68332 0.342341 4.19932C0.343008 3.92065 0.663008 3.76465 0.881008 3.93798C2.46501 5.19465 5.29767 7.48598 5.33301 7.51598C5.80634 7.89532 6.40634 8.10932 7.01967 8.10932C7.63301 8.10932 8.23301 7.89532 8.70634 7.50865C8.74168 7.48532 11.511 5.26265 13.119 3.98532C13.3377 3.81132 13.659 3.96732 13.6597 4.24532C13.6663 5.71798 13.6663 8.62732 13.6663 8.62732Z" fill="#666666"/>
<path d="M13.3176 1.78267C12.7402 0.694667 11.6042 0 10.3536 0H3.70025C2.44958 0 1.31358 0.694667 0.736248 1.78267C0.606915 2.026 0.668248 2.32933 0.883581 2.50133L5.83358 6.46067C6.18025 6.74067 6.60025 6.88 7.02025 6.88C7.02291 6.88 7.02491 6.88 7.02691 6.88C7.02891 6.88 7.03158 6.88 7.03358 6.88C7.45358 6.88 7.87358 6.74067 8.22025 6.46067L13.1702 2.50133C13.3856 2.32933 13.4469 2.026 13.3176 1.78267Z" fill="#666666"/>
</svg>
