<svg width="16" height="16" viewBox="0 0 16 16" fill="none" xmlns="http://www.w3.org/2000/svg">
    <path fill-rule="evenodd" clip-rule="evenodd" d="M4.092 1.046c.381-.037.95-.092 2.777.024.718.046 1.23.358 1.57.827.329.454.48 1.032.546 1.598.04.35.05.708.043 1.05.065.02.13.05.19.092.276.19.322.516.322.834 0 .354-.086.665-.367.841a.85.85 0 0 1-.267.108c-.019.547-.085 1.574-.562 2.48a3.16 3.16 0 0 1-1.179 1.267 3.276 3.276 0 0 1-.684.307V11.151c1.51.16 2.524.894 3.148 1.777.207.293.37.602.496.91V1.694l.504.296 4.88 2.868.491.289-.493.286-4.714 2.735V16h-.668v-.03h-.01c-2.356-.013-7.602-.03-9.755 0l-.309.003-.028-.307c-.155-1.723.486-2.864 1.377-3.569.753-.595 1.664-.865 2.373-.944.001-.258.008-.506.018-.709-.78-.294-1.315-.847-1.664-1.479-.48-.872-.606-1.89-.578-2.59a.988.988 0 0 1-.261-.134c-.25-.183-.355-.459-.355-.77 0-.264.049-.532.232-.729a.749.749 0 0 1 .278-.186c.008-1.344.267-2.185.646-2.71.551-.76 1.296-.776 1.618-.776.137 0 .249-.011.385-.024zM3.79 11.82c-.602.077-1.36.312-1.975.798-.664.525-1.185 1.36-1.145 2.68 2.212-.022 6.751-.008 9.116.003a3.914 3.914 0 0 0-.703-1.99c-.51-.721-1.332-1.338-2.602-1.49V12.48l-.039.073c-.189.357-.417.604-.68.744a1.123 1.123 0 0 1-.785.1c-.459-.103-.82-.445-.969-.636a.762.762 0 0 1-.12-.253 1.997 1.997 0 0 1-.057-.268 4.91 4.91 0 0 1-.041-.42zm-1.624-6.03c-.02-.226-.035-.44-.044-.64H8.331c-.013.196-.03.392-.046.573l-.006.068H2.166zm.048.666c-.016.611.103 1.47.498 2.188.41.741 1.111 1.334 2.32 1.357.789.015 1.365-.152 1.79-.406.426-.254.722-.61.931-1.006.388-.737.462-1.594.483-2.133H2.214zm6.147-1.972H2.111c.017-1.213.254-1.882.52-2.249.352-.486.801-.5 1.076-.5.193 0 .328-.014.481-.029.379-.037.87-.085 2.638.027.522.034.85.247 1.072.553.233.321.364.77.424 1.284.034.299.044.61.04.914zm2.432 2.913 3.886-2.255-3.886-2.284v4.539zm-6.343 3.27c-.01.277-.013.606-.003.91.008.217.022.413.044.566a1.352 1.352 0 0 0 .05.217c.103.127.338.333.582.387a.455.455 0 0 0 .326-.038c.102-.054.23-.167.364-.397V10.67H4.45z" fill="#3F3B3B"/>
</svg>
