<svg width="41" height="40" viewBox="0 0 41 40" fill="none" xmlns="http://www.w3.org/2000/svg">
    <path d="M39.77 0H26.23A1.23 1.23 0 0 0 25 1.232v8.007a1.239 1.239 0 0 0 .547 1.024 1.243 1.243 0 0 0 .684.208h4.498l2.203 2.464 2.197-2.464h4.64a1.222 1.222 0 0 0 .87-.361 1.2 1.2 0 0 0 .267-.4A1.242 1.242 0 0 0 41 9.24V1.232A1.232 1.232 0 0 0 39.77 0z" fill="#26BED6"/>
    <path d="M36.77 2.985H23.23A1.23 1.23 0 0 0 22 4.217v8.007a1.234 1.234 0 0 0 .99 1.208c.08.016.16.024.24.024h4.5l2.202 2.463 2.197-2.463h4.64A1.23 1.23 0 0 0 38 12.224V4.217a1.235 1.235 0 0 0-.99-1.209 1.233 1.233 0 0 0-.24-.023z" fill="#003C71"/>
    <path d="M22.54 17.176a.989.989 0 0 0-.505-.611c.055-.593-.026-1.32-.166-1.918a7.667 7.667 0 0 0-.586-1.615c-.3-.566-.67-1.17-1.189-1.724-.492-.575-1.127-1.099-1.843-1.56-6.247-3.948-14.873.723-14.203 6.818a.985.985 0 0 0-.5.608C2.067 17.2.88 18.296.88 19.648s1.189 2.449 2.667 2.476c.118.425.522.75 1.028.75.598 0 1.08-.441 1.08-.987v-4.475c0-.31-.165-.577-.409-.757.27-1.54 1.074-3.169 2.202-4.18 1.654-1.606 4.525-2.535 7.68-1.834 1.215.36 2.41.966 3.406 1.937 1.11.992 2.01 2.48 2.303 4.077-.638.473-.41.88-.41 5.232 0 .34.203.626.49.803v.38c0 .24-.069.475-.2.679-1.412 2.193-1.505 2.416-3.638 3.096-.671.213-1.429.306-2.195.492-.705-.695-1.95-.238-1.95.692 0 1.175 1.84 1.444 2.196.27.517-.126 1.05-.2 1.55-.352 2.751-.834 3.651-1.33 5.108-4.1a1.83 1.83 0 0 0 .21-.848v-.244a.988.988 0 0 0 .541-.633c1.477-.026 2.663-1.122 2.663-2.474 0-1.351-1.186-2.444-2.663-2.472z" fill="#26BED6"/>
    <path d="M13.045 33.175c.883-1.235 1.652-2.296 2.407-3.369.883-1.256 1.773-1.663 3.169-1.194a66.09 66.09 0 0 1 5.246 2.009c1.473.639 2.3 1.782 2.21 3.476-.047.834 0 1.671-.012 2.507-.03 2.302-1.082 3.374-3.372 3.386-2.955.018-5.91.006-8.866.006-3.434 0-6.87.009-10.303-.005C1.068 39.98.032 38.934.02 36.501c-.005-.797.04-1.595-.01-2.387-.11-1.764.802-2.897 2.306-3.544a64.04 64.04 0 0 1 5.258-1.97c1.515-.501 1.985-.277 2.923 1.033.807 1.128 1.62 2.253 2.549 3.543zM19.305 18.48c-.162 2.078-.82 4.732-3.006 6.777-1.854 1.732-4.68 1.775-6.504.002-2.527-2.46-3.324-5.586-2.933-8.962.204-1.765 1.285-3.156 3.1-3.747 2.698-.88 5.312-.968 7.688.913 1.387 1.097 1.704 2.603 1.655 5.018z" fill="#003C71"/>
</svg>
