<svg xmlns="http://www.w3.org/2000/svg" xmlns:xlink="http://www.w3.org/1999/xlink" width="25" height="25" viewBox="0 0 512 512" fill="none" class="h-full w-full" id="iconWithBackground">
		<rect id="r4" width="472" height="472" x="20" y="20" rx="35" fill="#ffffff" stroke="#ffcc36" stroke-width="40" stroke-opacity="100%" paint-order="stroke"></rect>
		<defs>
		  <linearGradient id="linearGradient" gradientUnits="userSpaceOnUse" gradientTransform="rotate(0)" style="transform-origin: center center;">
			<stop stop-color="#01befc"></stop>
			<stop offset="1" stop-color="#fbd847"></stop>
		  </linearGradient>
		  <radialGradient id="glare" cx="0" cy="0" r="1" gradientUnits="userSpaceOnUse" gradientTransform="translate(256) rotate(90) scale(512)">
			<stop stop-color="white"></stop>
			<stop offset="1" stop-color="white" stop-opacity="0"></stop>
		  </radialGradient>
		  <clipPath id="clip">
			<use xlink:href="#r4"></use>
		  </clipPath>
		</defs>
		<svg xmlns="http://www.w3.org/2000/svg" xmlns:xlink="http://www.w3.org/1999/xlink" aria-hidden="true" role="img" x="128" y="128" class="iconify iconify--fa" width="256" height="256" viewBox="0 0 1664 1600" style="color: rgb(255, 204, 54);">
		  <path fill="currentColor" d="m1137 972l306-297l-422-62l-189-382l-189 382l-422 62l306 297l-73 421l378-199l377 199zm527-357q0 22-26 48l-363 354l86 500q1 7 1 20q0 50-41 50q-19 0-40-12l-449-236l-449 236q-22 12-40 12q-21 0-31.5-14.5T301 1537q0-6 2-20l86-500L25 663Q0 636 0 615q0-37 56-46l502-73L783 41q19-41 49-41t49 41l225 455l502 73q56 9 56 46z"></path>
		</svg>
	  </svg>